<svg width="6" height="6" viewBox="0 0 6 6" fill="none" xmlns="http://www.w3.org/2000/svg">
<path d="M1 0C1.19778 0 1.39112 0.0586491 1.55557 0.16853C1.72002 0.278412 1.84819 0.434591 1.92388 0.617317C1.99957 0.800043 2.01937 1.00111 1.98079 1.19509C1.9422 1.38907 1.84696 1.56725 1.70711 1.70711C1.56725 1.84696 1.38907 1.9422 1.19509 1.98079C1.00111 2.01937 0.800043 1.99957 0.617317 1.92388C0.434591 1.84819 0.278412 1.72002 0.16853 1.55557C0.0586491 1.39112 0 1.19778 0 1C0 0.734784 0.105357 0.48043 0.292893 0.292893C0.48043 0.105357 0.734784 0 1 0ZM1.38375 5.67656C1.33732 5.723 1.28219 5.75984 1.22152 5.78498C1.16085 5.81011 1.09583 5.82305 1.03016 5.82305C0.964486 5.82305 0.899458 5.81011 0.838788 5.78498C0.778118 5.75984 0.722993 5.723 0.676562 5.67656L0.323125 5.32312C0.276684 5.27669 0.239844 5.22157 0.214709 5.1609C0.189575 5.10023 0.176638 5.0352 0.176638 4.96953C0.176638 4.90386 0.189575 4.83883 0.214709 4.77816C0.239844 4.71749 0.276684 4.66237 0.323125 4.61594L4.61594 0.323125C4.66237 0.276684 4.71749 0.239844 4.77816 0.214709C4.83883 0.189575 4.90386 0.176638 4.96953 0.176638C5.0352 0.176638 5.10023 0.189575 5.1609 0.214709C5.22157 0.239844 5.27669 0.276684 5.32312 0.323125L5.67656 0.676562C5.723 0.722993 5.75984 0.778118 5.78498 0.838788C5.81011 0.899458 5.82305 0.964486 5.82305 1.03016C5.82305 1.09583 5.81011 1.16085 5.78498 1.22152C5.75984 1.28219 5.723 1.33732 5.67656 1.38375L1.38375 5.67656ZM5 6C4.80222 6 4.60888 5.94135 4.44443 5.83147C4.27998 5.72159 4.15181 5.56541 4.07612 5.38268C4.00043 5.19996 3.98063 4.99889 4.01921 4.80491C4.0578 4.61093 4.15304 4.43275 4.29289 4.29289C4.43275 4.15304 4.61093 4.0578 4.80491 4.01921C4.99889 3.98063 5.19996 4.00043 5.38268 4.07612C5.56541 4.15181 5.72159 4.27998 5.83147 4.44443C5.94135 4.60888 6 4.80222 6 5C6 5.26522 5.89464 5.51957 5.70711 5.70711C5.51957 5.89464 5.26522 6 5 6Z" fill="#213F7D"/>
</svg>
