<svg width="11" height="5" viewBox="0 0 11 5" fill="none" xmlns="http://www.w3.org/2000/svg">
<path d="M10.6002 0.25V0.15H10.5002H9.75H9.65V0.25V2.5C9.65 2.64197 9.56148 2.80274 9.364 2.96974C9.16842 3.13514 8.87945 3.29458 8.51358 3.43352C7.78272 3.71106 6.76375 3.89976 5.62476 3.89976C4.48577 3.89976 3.46698 3.71106 2.7363 3.43351C2.37054 3.29457 2.08165 3.13514 1.88614 2.96975C1.68874 2.80275 1.60024 2.64198 1.60024 2.5V0.25V0.15H1.50024H0.75H0.65V0.25V2.5C0.65 3.22807 1.25004 3.81567 2.14429 4.21593C3.04511 4.61913 4.27857 4.85 5.62476 4.85C6.9713 4.85 8.20495 4.61913 9.10586 4.21593C10.0002 3.81567 10.6002 3.22807 10.6002 2.5V0.25Z" fill="#FF3366" stroke="#FF3366" stroke-width="0.2"/>
</svg>
