<svg width="11" height="5" viewBox="0 0 11 5" fill="none" xmlns="http://www.w3.org/2000/svg">
<path d="M10.6002 2.25C10.6002 1.52193 10.0002 0.934328 9.10586 0.534069C8.20495 0.130866 6.9713 -0.1 5.62476 -0.1C4.27857 -0.1 3.04511 0.130867 2.14429 0.534071C1.25004 0.93433 0.65 1.52193 0.65 2.25C0.65 2.97807 1.25004 3.56567 2.14429 3.96593C3.04511 4.36913 4.27857 4.6 5.62476 4.6C6.9713 4.6 8.20495 4.36913 9.10586 3.96593C10.0002 3.56567 10.6002 2.97807 10.6002 2.25ZM1.60024 2.25C1.60024 2.10802 1.68874 1.94724 1.88614 1.78025C2.08165 1.61485 2.37054 1.45542 2.7363 1.31648C3.46698 1.03894 4.48577 0.85024 5.62476 0.85024C6.76375 0.85024 7.78272 1.03894 8.51358 1.31649C8.87945 1.45543 9.16842 1.61487 9.364 1.78027C9.56148 1.94727 9.65 2.10804 9.65 2.25C9.65 2.39196 9.56148 2.55273 9.364 2.71974C9.16842 2.88513 8.87945 3.04457 8.51358 3.18351C7.78272 3.46106 6.76375 3.64976 5.62476 3.64976C4.48577 3.64976 3.46698 3.46106 2.7363 3.18351C2.37054 3.04457 2.08165 2.88514 1.88614 2.71975C1.68874 2.55275 1.60024 2.39198 1.60024 2.25Z" fill="#FF3366" stroke="#FF3366" stroke-width="0.2"/>
</svg>
