<svg width="7" height="5" viewBox="0 0 7 5" fill="none" xmlns="http://www.w3.org/2000/svg">
<path d="M0.598911 4.7459L0.620712 4.80647L0.684869 4.8117C0.989146 4.83652 1.30405 4.85 1.62465 4.85C2.97119 4.85 4.20484 4.61913 5.10575 4.21593C6.00008 3.81567 6.60013 3.22807 6.60013 2.5V0.25V0.15H6.50013H5.74989H5.64989V0.25V2.5C5.64989 2.64197 5.56136 2.80274 5.36388 2.96974C5.1683 3.13514 4.87933 3.29458 4.51347 3.43352C3.78261 3.71106 2.76363 3.89976 1.62465 3.89976C1.29942 3.89976 0.984028 3.88444 0.682012 3.85591L0.569571 3.84529L0.572644 3.95819C0.577801 4.14758 0.58212 4.30972 0.585516 4.43723C0.589062 4.57033 0.591602 4.66569 0.59304 4.71494L0.593505 4.73088L0.598907 4.74589L0.598911 4.7459Z" fill="#FF3366" stroke="#FF3366" stroke-width="0.2"/>
</svg>
