<svg width="11" height="5" viewBox="0 0 11 5" fill="none" xmlns="http://www.w3.org/2000/svg">
<path d="M10.35 0.5V0.4H10.25H9.49976H9.39976V0.5V2.75C9.39976 2.89198 9.31126 3.05276 9.11385 3.21975C8.91834 3.38515 8.62946 3.54458 8.26369 3.68352C7.53301 3.96106 6.51422 4.14976 5.37524 4.14976C4.23625 4.14976 3.21728 3.96106 2.48641 3.68351C2.12055 3.54457 1.83158 3.38513 1.636 3.21974C1.43852 3.05273 1.35 2.89196 1.35 2.75V0.5V0.4H1.25H0.499756H0.399756V0.5V2.75C0.399756 3.47807 0.999803 4.06567 1.89414 4.46593C2.79505 4.86913 4.02869 5.1 5.37524 5.1C6.72142 5.1 7.95489 4.86913 8.85571 4.46593C9.74995 4.06567 10.35 3.47807 10.35 2.75V0.5Z" fill="#FF3366" stroke="#FF3366" stroke-width="0.2"/>
</svg>
