<svg width="11" height="6" viewBox="0 0 11 6" fill="none" xmlns="http://www.w3.org/2000/svg">
<path d="M4.4708 5.15255L4.30938 5.2763L4.56264 5.30042C4.90546 5.33307 5.2609 5.35009 5.62471 5.35009C6.97125 5.35009 8.2049 5.11923 9.10581 4.71602C10.0001 4.31576 10.6002 3.72816 10.6002 3.00009V0.750095V0.650095H10.5002H9.74995H9.64995V0.750095V3.00009C9.64995 3.14206 9.56142 3.30283 9.36394 3.46984C9.16837 3.63523 8.87939 3.79467 8.51353 3.93361C7.78267 4.21116 6.76369 4.39985 5.62471 4.39985C5.25696 4.39985 4.90052 4.38035 4.56311 4.34417L4.44952 4.33199L4.45248 4.44619C4.45444 4.52176 4.4564 4.59831 4.45838 4.67569C4.46238 4.83162 4.46646 4.99095 4.4708 5.15255ZM1.48926 0.911331L1.60024 0.923591V0.811936V0.750061V0.650061H1.50024H0.75H0.65V0.750061V0.757092V0.853612L0.74646 0.857029C1.0019 0.866077 1.24972 0.884871 1.48926 0.911331Z" fill="#FF3366" stroke="#FF3366" stroke-width="0.2"/>
</svg>
