<svg width="11" height="6" viewBox="0 0 11 6" fill="none" xmlns="http://www.w3.org/2000/svg">
<path d="M10.35 3C10.35 2.27193 9.74995 1.68433 8.85571 1.28407C7.95489 0.880867 6.72142 0.65 5.37524 0.65C4.02869 0.65 2.79505 0.880866 1.89414 1.28407C0.999803 1.68433 0.399756 2.27193 0.399756 3C0.399756 3.72807 0.999803 4.31567 1.89414 4.71593C2.79505 5.11913 4.02869 5.35 5.37524 5.35C6.72142 5.35 7.95489 5.11913 8.85571 4.71593C9.74995 4.31567 10.35 3.72807 10.35 3ZM1.35 3C1.35 2.85803 1.43852 2.69726 1.636 2.53026C1.83158 2.36486 2.12055 2.20542 2.48641 2.06648C3.21728 1.78894 4.23625 1.60024 5.37524 1.60024C6.51422 1.60024 7.53301 1.78894 8.26369 2.06649C8.62946 2.20543 8.91834 2.36486 9.11385 2.53025C9.31126 2.69725 9.39976 2.85802 9.39976 3C9.39976 3.14198 9.31126 3.30275 9.11385 3.46975C8.91834 3.63514 8.62946 3.79457 8.26369 3.93351C7.53301 4.21106 6.51422 4.39976 5.37524 4.39976C4.23625 4.39976 3.21728 4.21106 2.48641 3.93351C2.12055 3.79457 1.83158 3.63513 1.636 3.46974C1.43852 3.30273 1.35 3.14196 1.35 3Z" fill="#FF3366" stroke="#FF3366" stroke-width="0.2"/>
</svg>
