<svg width="10" height="10" viewBox="0 0 10 10" fill="none" xmlns="http://www.w3.org/2000/svg">
<path d="M9.03808 7.94222V2.40002C9.03808 0.7719 5.19208 0.7258 4.75368 0.7258C4.3154 0.7258 0.47168 0.7758 0.47168 2.40002V7.97962C0.472461 8.04056 0.482617 8.10071 0.502148 8.15774C0.843548 9.56008 4.33815 9.59992 4.75615 9.59992C5.17415 9.59992 8.95615 9.55227 9.03575 7.97414C9.03575 7.96555 9.03809 7.95617 9.03809 7.94211L9.03808 7.94222ZM7.83808 4.14222C7.5998 4.36176 6.4998 4.72034 4.75608 4.72034C3.01154 4.72034 1.92008 4.36174 1.67168 4.15002V3.6344C2.83964 4.06018 4.47168 4.07816 4.75608 4.07816C5.04048 4.07816 6.6717 4.05785 7.84048 3.6344L7.83808 4.14222ZM1.67168 5.47582C2.83964 5.9016 4.47168 5.91958 4.75608 5.91958C5.04048 5.91958 6.6717 5.89927 7.84048 5.47582L7.8397 6.00004C7.59204 6.21176 6.49986 6.57036 4.7553 6.57036C3.01154 6.57036 1.9201 6.20004 1.6717 6.00004L1.67168 5.47582ZM4.75608 1.92982C6.25608 1.92982 7.27408 2.19544 7.68808 2.40404C7.27402 2.60404 6.25604 2.87826 4.75608 2.87826C3.25612 2.87826 2.23568 2.6142 1.82408 2.40014C2.2358 2.20014 3.25376 1.92982 4.75608 1.92982ZM1.67168 7.83442V7.31802C2.83964 7.7438 4.47168 7.76178 4.75608 7.76178C5.04048 7.76178 6.6717 7.74147 7.84048 7.31802V7.83364C7.5897 8.04614 6.49986 8.40004 4.75608 8.40004C3.01154 8.40004 1.92008 8.04614 1.67168 7.83442Z" fill="#F55F44"/>
</svg>
