<svg width="12" height="15" viewBox="0 0 12 15" fill="none" xmlns="http://www.w3.org/2000/svg">
<path d="M0.780884 10.9717L0.829523 11.0592C0.828246 11.0598 0.826968 11.0605 0.825691 11.0611L0.780884 10.9717ZM0.780884 10.9717C0.810822 10.9567 0.840754 10.942 0.870681 10.9274L0.868283 10.9231L0.780884 10.9717ZM9.28822 10.4376L9.28767 10.4374C8.69738 10.1973 8.23656 10.0011 7.91625 9.73342C7.61171 9.47893 7.43258 9.15794 7.40838 8.6562C7.64508 8.35313 7.79859 7.97712 7.89782 7.64315C7.99577 7.31349 8.04272 7.01819 8.06328 6.86117C8.45583 6.2465 8.61349 5.6202 8.54733 5.18821C8.87751 4.39117 8.64574 3.74349 8.42606 3.23023C8.24374 2.79194 8.11212 2.42115 8.2809 1.94649L8.39059 1.65426L8.42097 1.57334L8.3453 1.53157L8.0153 1.34938L8.01541 1.34919L8.00942 1.34639C6.81653 0.787077 5.46652 0.70846 4.48109 1.12481L4.48106 1.12474L4.47745 1.12644C3.84227 1.42519 3.3485 1.91218 3.11455 2.58762C2.73668 2.90253 2.56085 3.36163 2.50048 3.82113C2.44025 4.27953 2.49316 4.7492 2.58394 5.105C2.47797 5.5783 2.67416 6.21148 3.06763 6.826C3.08818 6.98263 3.13514 7.27789 3.23307 7.60758C3.33212 7.94109 3.48529 8.31662 3.72132 8.61945C3.68032 9.12247 3.5005 9.44423 3.20026 9.69863C2.88464 9.96607 2.43295 10.1623 1.84322 10.4021L1.82726 10.4085C1.46632 10.5531 1.10185 10.699 0.736077 10.8823L0.642763 10.9291L0.693485 11.0203L1.06045 11.6803L1.10899 11.7676L1.19635 11.7192C1.41057 11.6004 1.61993 11.5151 1.83548 11.4273C1.9469 11.3819 2.05998 11.3358 2.17624 11.2841C2.74128 11.0654 3.36225 10.8217 3.83989 10.4056C4.32445 9.98346 4.65785 9.38776 4.65785 8.47869V8.33173V8.29031L4.62856 8.26102L4.51856 8.15102C4.33476 7.96723 4.20316 7.67476 4.11769 7.38242C4.03264 7.09151 3.99785 6.81684 3.99785 6.68174V6.57173V6.54788L3.98708 6.52659L3.95012 6.45355L3.95077 6.45322L3.9441 6.44322C3.72898 6.12054 3.6145 5.85478 3.5581 5.65967C3.52987 5.56202 3.51642 5.48287 3.51188 5.4237C3.50775 5.3698 3.51146 5.33824 3.51443 5.32518L3.58349 5.18625L3.59993 5.15317L3.59092 5.11735L3.55397 4.97039L3.55424 4.97033L3.55187 4.9632C3.46494 4.70201 3.42061 4.3406 3.45578 4.00622C3.49134 3.66817 3.60485 3.38458 3.80621 3.24447L3.91535 3.172L3.94757 3.1506L3.95701 3.11308L3.99356 2.96773C4.13313 2.48177 4.40694 2.14055 4.88943 1.93365L4.88946 1.93371L4.89281 1.93212C5.53866 1.62633 6.42813 1.64712 7.2688 1.97766C7.18233 2.59108 7.3669 3.06781 7.54369 3.4909C7.55591 3.52513 7.56803 3.55866 7.57992 3.59158C7.74895 4.05943 7.87339 4.40387 7.62183 4.87462L7.62129 4.87432L7.61715 4.88468L7.54411 5.06773L7.52753 5.10926L7.54744 5.14931L7.61847 5.29222C7.61884 5.29411 7.61958 5.29839 7.62018 5.30577C7.62141 5.32076 7.6216 5.34271 7.61957 5.37184C7.61551 5.42988 7.60299 5.51079 7.57674 5.6114C7.52447 5.81183 7.41882 6.08629 7.22296 6.40748L7.15049 6.51365L7.13308 6.53916V6.57003V6.67374C7.11443 6.82135 7.07829 7.09568 6.99899 7.3821C6.91776 7.67552 6.79513 7.96656 6.61237 8.14932L6.50237 8.25932L6.47308 8.28861V8.33003V8.47698C6.47308 9.38606 6.80648 9.98176 7.29103 10.4039C7.76933 10.8206 8.39134 11.0644 8.95699 11.2833C9.52852 11.5045 10.0441 11.71 10.4373 12.0368C10.8038 12.3416 11.0671 12.7552 11.1538 13.4H4.667H4.567V13.5V14.2331V14.3331H4.667H12H12.1V14.2331V13.8661C12.1 12.7212 11.7041 11.9794 11.1466 11.4649C10.595 10.9558 9.89055 10.675 9.28822 10.4376Z" fill="#DF18FF" stroke="#DF18FF" stroke-width="0.2"/>
</svg>
